Coordinates
version=1
nRows=13
nColumns=22
inDegrees=yes

Units are S.I. units (second, meters, Newtons, ...)
If the header above contains a line with 'inDegrees', this indicates whether rotational values are in degrees (yes) or radians (no).

endheader
time	pelvis_tilt	pelvis_list	pelvis_rotation	pelvis_tx	pelvis_ty	pelvis_tz	hip_flexion_r	hip_adduction_r	hip_rotation_r	knee_angle_r	ankle_angle_r	subtalar_angle_r	hip_flexion_l	hip_adduction_l	hip_rotation_l	knee_angle_l	ankle_angle_l	subtalar_angle_l	lumbar_extension	lumbar_bending	lumbar_rotation
      4.45000000	      3.52066147	      6.90082167	     99.70540025	      0.45711788	      0.90784467	     -0.36801128	     15.92639103	      0.83748465	     -7.29235771	    -21.47974717	     -5.03197096	      7.72452803	     -4.98406106	     -7.39385958	      2.59298762	    -51.77518723	     -6.37445086	     -0.78618498	     -7.38010606	     -1.23084590	     -5.21367385
      4.46000000	      3.67319758	      6.92045752	     99.97025592	      0.45878905	      0.90916873	     -0.37500573	     15.35935810	      1.17588236	     -7.57385887	    -21.31401024	     -4.62647312	      7.38911381	     -3.45680026	     -7.76157336	      2.76957954	    -54.26667716	     -8.50097048	     -0.80187499	     -7.39113212	     -0.97491491	     -4.99036308
      4.47000000	      3.75222545	      6.93946019	    100.25194431	      0.46038699	      0.91043189	     -0.38173224	     14.78989373	      1.44835921	     -7.84064071	    -21.13265873	     -4.18272100	      6.96802038	     -1.90423319	     -8.03050733	      2.97097778	    -56.67913793	    -10.51547559	     -0.91988088	     -7.43626550	     -0.81484908	     -4.75903627
      4.48000000	      3.76125312	      6.97990125	    100.54456793	      0.46190608	      0.91168437	     -0.38819317	     14.19910596	      1.66066228	     -8.07445384	    -20.94458347	     -3.73917877	      6.51741069	     -0.37602054	     -8.20795194	      3.17493376	    -58.95983458	    -12.37542365	     -1.06141473	     -7.54220306	     -0.73664000	     -4.53383100
      4.49000000	      3.71163892	      7.03715073	    100.86157814	      0.46328722	      0.91296989	     -0.39442216	     13.56848584	      1.81761230	     -8.28155594	    -20.70658823	     -3.35111243	      6.11916718	      1.10560755	     -8.28771765	      3.41028413	    -61.05207163	    -13.98879361	     -1.15851739	     -7.69140376	     -0.72196124	     -4.32401808
      4.50000000	      3.60792777	      7.09204101	    101.15792021	      0.46459406	      0.91424438	     -0.40042913	     12.95411660	      1.92042939	     -8.44955309	    -20.48737131	     -2.94755299	      5.71528938	      2.53562826	     -8.28304014	      3.59638073	    -62.92937503	    -15.25923980	     -1.22787526	     -7.86175793	     -0.76945931	     -4.08803989
      4.51000000	      3.45737132	      7.15389538	    101.43491359	      0.46580060	      0.91556401	     -0.40625048	     12.32696498	      1.97551533	     -8.58187552	    -20.25264633	     -2.58359872	      5.37300889	      3.87955546	     -8.19678702	      3.74138596	    -64.55251542	    -16.10356041	     -1.24170890	     -8.05492943	     -0.86513865	     -3.82289681
      4.52000000	      3.26672300	      7.21340713	    101.68112416	      0.46691388	      0.91693245	     -0.41190616	     11.69640782	      1.98341425	     -8.69605769	    -19.99787855	     -2.26407159	      5.11906747	      5.13187810	     -8.03967076	      3.82639346	    -65.90625464	    -16.46497422	     -1.20340809	     -8.25327800	     -1.00255547	     -3.51372189
      4.53000000	      3.04613900	      7.25665711	    101.88471231	      0.46796409	      0.91828307	     -0.41732625	     11.11157477	      1.95450824	     -8.72932353	    -19.77997484	     -1.93541485	      4.90989950	      6.31377239	     -7.82315500	      3.84421031	    -67.01107390	    -16.25447213	     -1.12812804	     -8.45149685	     -1.16840164	     -3.18912733
      4.54000000	      2.79536968	      7.20783187	    102.03592247	      0.46896340	      0.91955543	     -0.42257237	     10.63883618	      1.86531012	     -8.74569737	    -19.56792212	     -1.69473829	      4.62087914	      7.49924822	     -7.54343937	      3.77049387	    -67.85481477	    -15.60893927	     -0.99479570	     -8.54862190	     -1.38773757	     -2.80210109
      4.55000000	      2.52981473	      7.16471166	    102.12341679	      0.46993585	      0.92083004	     -0.42762524	     10.19425936	      1.75143768	     -8.74150521	    -19.39757446	     -1.44938605	      4.45358993	      8.58212531	     -7.25562665	      3.59264897	    -68.44493468	    -14.51056905	     -0.86049169	     -8.66240249	     -1.62000982	     -2.36576384
      4.56000000	      2.26029794	      7.09227399	    102.17051411	      0.47086381	      0.92203178	     -0.43240862	      9.82499262	      1.61622449	     -8.69222963	    -19.27441472	     -1.23818511	      4.30771712	      9.62903760	     -6.95246201	      3.36491324	    -68.81219626	    -13.08620234	     -0.72271140	     -8.76382803	     -1.85792612	     -1.91257333
      4.57000000	      2.00275469	      6.89947250	    102.15829903	      0.47180566	      0.92302059	     -0.43701738	      9.61301800	      1.46340872	     -8.59978833	    -19.16766421	     -1.01262196	      4.05762827	     10.73906758	     -6.66615553	      3.03777092	    -68.96754553	    -11.47421930	     -0.51391523	     -8.72777718	     -2.11786544	     -1.46316503
